<?xml version="1.0" standalone="no"?>
<svg height="181.147" preserveAspectRatio="none" viewBox="0.000 0.000 200.334 181.147" width="200.334" x="0.000" xmlns="http://www.w3.org/2000/svg" xmlns:svg="http://www.w3.org/2000/svg" xmlns:xlink="http://www.w3.org/1999/xlink" y="0.000">
<svg width="200.334" height="181.147" viewBox="1432.189 464.582 200.33398 181.147" preserveAspectRatio="none" xmlns="http://www.w3.org/2000/svg"><defs><clipPath id="NxD90lRSclipPath1"><path fill="#000000" stroke="none" d="M 0 0 L 200.334 0 L 200.334 181.147 L 0 181.147 Z"/></clipPath></defs><g transform="matrix(1 0 0 1 1432.1886 464.582)"><g clip-path="url(#NxD90lRSclipPath1)"><g transform="matrix(1 0 0 1 -1432.1886 -464.582)"><path fill="none" stroke="#000000" stroke-miterlimit="10" d="M 1451.853 592.555 L 1517.193 494.965"/></g><g transform="matrix(1 0 0 1 -1432.1886 -464.582)"><path fill="none" stroke="#000000" stroke-miterlimit="10" d="M 1517.091 494.945 L 1565.216 624.508"/></g><g transform="matrix(1 0 0 1 -1432.1886 -464.582)"><path fill="none" stroke="#000000" stroke-miterlimit="10" d="M 1565.212 624.391 L 1451.861 592.793"/></g><g transform="matrix(1 0 0 1 -1432.1886 -464.582)"><path fill="none" stroke="#000000" stroke-miterlimit="10" d="M 1453.154 592.016 L 1508.271 564.16"/></g><g transform="matrix(1 0 0 1 -1432.1886 -464.582)"><path fill="none" stroke="#000000" stroke-miterlimit="10" d="M 1508.599 564.16 L 1517.044 495.117"/></g><g transform="matrix(1 0 0 1 -1432.1886 -464.582)"><path fill="none" stroke="#000000" stroke-miterlimit="10" d="M 1508.915 564.215 L 1564.946 623.801"/></g><g transform="matrix(1 0 0 1 -1432.1886 -464.582)"><path fill="none" stroke="#000000" stroke-miterlimit="10" d="M 1591.482 559.246 L 1591.482 559.246"/></g><g transform="matrix(1 0 0 1 -1432.1886 -464.582)"><path fill="none" stroke="#000000" stroke-miterlimit="10" d="M 1516.04 477.082 L 1516.04 477.082"/></g><g transform="matrix(1 0 0 1 -1432.1886 -464.582)"><path fill="none" stroke="#000000" stroke-miterlimit="10" d="M 1569.107 562.141 L 1569.107 562.141"/></g><g><g transform="matrix(1 0 0 1 134.2617 166.1484)"><g><path fill="#000000" stroke="none" d="M 3.719 0.094 C 3.031 0.094 2.453 -0.055 1.984 -0.359 C 1.516 -0.66 1.16 -1.086 0.922 -1.641 C 0.68 -2.191 0.563 -2.836 0.563 -3.578 C 0.563 -4.297 0.688 -4.93 0.938 -5.484 C 1.188 -6.035 1.551 -6.461 2.031 -6.766 C 2.52 -7.078 3.125 -7.234 3.844 -7.234 C 4.551 -7.234 5.078 -7.125 5.422 -6.906 C 5.766 -6.695 5.938 -6.43 5.938 -6.109 C 5.938 -5.879 5.844 -5.695 5.656 -5.563 C 5.477 -5.426 5.242 -5.359 4.953 -5.359 C 4.953 -5.578 4.914 -5.785 4.844 -5.984 C 4.77 -6.18 4.648 -6.348 4.484 -6.484 C 4.316 -6.617 4.094 -6.688 3.813 -6.688 C 3.082 -6.688 2.566 -6.414 2.266 -5.875 C 1.973 -5.332 1.828 -4.566 1.828 -3.578 C 1.828 -2.973 1.895 -2.445 2.031 -2 C 2.176 -1.551 2.398 -1.203 2.703 -0.953 C 3.004 -0.711 3.406 -0.594 3.906 -0.594 C 4.383 -0.594 4.758 -0.68 5.031 -0.859 C 5.313 -1.047 5.539 -1.254 5.719 -1.484 C 5.844 -1.391 5.906 -1.254 5.906 -1.078 C 5.906 -0.898 5.828 -0.719 5.672 -0.531 C 5.523 -0.352 5.289 -0.203 4.969 -0.078 C 4.645 0.035 4.227 0.094 3.719 0.094 Z M 3.719 0.094"/></g></g></g><g><g transform="matrix(1 0 0 1 12 132.7383)"><g><path fill="#000000" stroke="none" d="M 0.344 0 L 0.344 -0.453 L 0.563 -0.453 C 0.758 -0.453 0.93 -0.488 1.078 -0.563 C 1.223 -0.645 1.297 -0.844 1.297 -1.156 L 1.297 -6.016 C 1.297 -6.305 1.223 -6.488 1.078 -6.563 C 0.93 -6.645 0.758 -6.688 0.563 -6.688 L 0.344 -6.688 L 0.344 -7.141 L 3.094 -7.141 C 3.988 -7.141 4.656 -6.992 5.094 -6.703 C 5.531 -6.41 5.75 -5.957 5.75 -5.344 C 5.75 -4.906 5.629 -4.563 5.391 -4.313 C 5.16 -4.07 4.863 -3.898 4.5 -3.797 L 4.5 -3.734 C 4.957 -3.648 5.328 -3.457 5.609 -3.156 C 5.898 -2.852 6.047 -2.445 6.047 -1.938 C 6.047 -0.645 5.164 0 3.406 0 Z M 3.063 -4 C 3.625 -4 4.004 -4.102 4.203 -4.313 C 4.41 -4.52 4.516 -4.863 4.516 -5.344 C 4.516 -5.82 4.398 -6.148 4.172 -6.328 C 3.953 -6.516 3.578 -6.609 3.047 -6.609 L 2.453 -6.609 L 2.453 -4 Z M 3.344 -0.531 C 3.883 -0.531 4.266 -0.641 4.484 -0.859 C 4.703 -1.078 4.813 -1.445 4.813 -1.969 C 4.813 -2.477 4.707 -2.852 4.5 -3.094 C 4.289 -3.344 3.914 -3.469 3.375 -3.469 L 2.453 -3.469 L 2.453 -0.531 Z M 3.344 -0.531"/></g></g></g><g><g transform="matrix(1 0 0 1 81.4453 26.9961)"><g><path fill="#000000" stroke="none" d="M 0.016 0 L 0.016 -0.453 L 0.188 -0.453 C 0.375 -0.453 0.52 -0.5 0.625 -0.594 C 0.727 -0.688 0.836 -0.895 0.953 -1.219 L 3.156 -7.141 L 4.094 -7.141 L 6.313 -1.031 C 6.395 -0.801 6.488 -0.645 6.594 -0.563 C 6.707 -0.488 6.859 -0.453 7.047 -0.453 L 7.188 -0.453 L 7.188 0 L 4.281 0 L 4.281 -0.453 L 4.547 -0.453 C 4.723 -0.453 4.859 -0.488 4.953 -0.563 C 5.055 -0.633 5.109 -0.75 5.109 -0.906 C 5.109 -0.969 5.098 -1.031 5.078 -1.094 C 5.066 -1.156 5.051 -1.223 5.031 -1.297 L 4.641 -2.375 L 2.063 -2.375 L 1.703 -1.375 C 1.641 -1.195 1.609 -1.039 1.609 -0.906 C 1.609 -0.602 1.805 -0.453 2.203 -0.453 L 2.5 -0.453 L 2.5 0 Z M 2.266 -2.906 L 4.453 -2.906 L 3.859 -4.625 C 3.766 -4.906 3.672 -5.176 3.578 -5.438 C 3.492 -5.707 3.426 -5.961 3.375 -6.203 C 3.32 -5.961 3.254 -5.723 3.172 -5.484 C 3.098 -5.254 3.008 -4.992 2.906 -4.703 Z M 2.266 -2.906"/></g></g></g><g><g transform="matrix(1 0 0 1 80.0078 98.6289)"><g><path fill="#000000" stroke="none" d="M 0.344 0 L 0.344 -0.453 L 0.563 -0.453 C 0.77 -0.453 0.941 -0.488 1.078 -0.563 C 1.223 -0.645 1.297 -0.844 1.297 -1.156 L 1.297 -6.031 C 1.297 -6.313 1.223 -6.488 1.078 -6.563 C 0.93 -6.645 0.758 -6.688 0.563 -6.688 L 0.344 -6.688 L 0.344 -7.141 L 3.234 -7.141 C 4.098 -7.141 4.734 -6.953 5.141 -6.578 C 5.555 -6.203 5.766 -5.691 5.766 -5.047 C 5.766 -4.648 5.676 -4.273 5.5 -3.922 C 5.32 -3.578 5.031 -3.297 4.625 -3.078 C 4.227 -2.867 3.691 -2.766 3.016 -2.766 L 2.453 -2.766 L 2.453 -1.094 C 2.453 -0.813 2.523 -0.633 2.672 -0.563 C 2.828 -0.488 3.004 -0.453 3.203 -0.453 L 3.609 -0.453 L 3.609 0 Z M 2.906 -3.266 C 3.488 -3.266 3.898 -3.395 4.141 -3.656 C 4.391 -3.926 4.516 -4.375 4.516 -5 C 4.516 -5.551 4.406 -5.957 4.188 -6.219 C 3.969 -6.488 3.594 -6.625 3.063 -6.625 L 2.453 -6.625 L 2.453 -3.266 Z M 2.906 -3.266"/></g></g></g></g></g></svg>
</svg>
